<?xml version="1.0" encoding="UTF-8"?>
<svg width="134px" height="36px" viewBox="0 0 134 36" version="1.1" xmlns="http://www.w3.org/2000/svg" xmlns:xlink="http://www.w3.org/1999/xlink">
    <!-- Generator: Sketch 51.3 (57544) - http://www.bohemiancoding.com/sketch -->
    <title>Combined Shape</title>
    <desc>Created with Sketch.</desc>
    <defs></defs>
    <g id="Page-1" stroke="none" stroke-width="1" fill="none" fill-rule="evenodd">
        <g id="pc" transform="translate(-1004.000000, -6586.000000)" fill="#AAAAAA">
            <path d="M1043.62929,6602.64939 C1044.32239,6602.85723 1045.28236,6602.65869 1046.91826,6602.03548 C1049.43811,6601.07516 1061.14356,6595.59742 1069.48782,6594.97581 C1069.48782,6594.97581 1061.77336,6596.85155 1054.42311,6601.69645 C1054.42311,6601.69645 1043.3516,6608.7962 1040.66348,6611.33781 C1040.66348,6611.33781 1039.15132,6612.58007 1038.70314,6615.29135 C1038.2785,6617.86054 1037.75335,6621.13987 1037.69927,6621.47505 L1031.19003,6621.47569 L1029.51818,6615.91296 C1029.51818,6615.91296 1028.28561,6612.9191 1030.86208,6612.01555 C1030.86208,6612.01555 1042.11967,6608.57072 1053.32095,6601.00299 C1053.32095,6601.00299 1041.00002,6608.62589 1028.90238,6604.44686 C1028.90238,6604.44686 1026.40129,6603.7858 1025.71042,6601.67913 C1025.24633,6600.26399 1025.1754,6599.5346 1025.06375,6598.60251 C1025.06375,6598.60251 1022.4313,6602.92363 1024.4753,6604.02444 C1026.51994,6605.12524 1036.44634,6608.51427 1046.19144,6604.57516 C1046.19144,6604.57516 1037.62261,6609.99644 1024.34934,6611.6066 C1024.34934,6611.6066 1023.99404,6611.66979 1023.42913,6611.76505 C1022.11481,6611.98797 1020.23653,6613.00923 1019.56092,6615.33401 C1018.63626,6618.5107 1018.09043,6621.47441 1018.09043,6621.47441 L1011.66388,6621.47441 L1009.26968,6610.7595 C1009.26968,6610.7595 1008.37682,6607.55074 1011.11774,6607.96354 C1014.14334,6608.41965 1023.46762,6610.26459 1030.412,6608.1191 C1030.412,6608.1191 1018.55228,6607.32846 1012.08375,6601.69452 C1006.04782,6596.43874 1004.21789,6587.21082 1004,6586 L1010.43672,6586 C1010.58654,6587.02671 1011.82356,6593.27072 1013.05041,6596.65429 C1014.22954,6599.90731 1016.5789,6606.70685 1033.54861,6607.15878 C1033.54861,6607.15878 1024.86718,6606.53782 1020.21872,6603.43137 C1020.21872,6603.43137 1017.5869,6602.13202 1019.2667,6595.86364 C1020.80654,6590.11969 1021.68794,6586.55682 1021.8244,6586 L1027.41025,6586.00064 L1031.47757,6600.77686 C1031.47757,6600.77686 1032.15032,6604.2217 1036.07037,6604.44782 C1039.99106,6604.67363 1043.29498,6603.88299 1043.85481,6603.71363 C1043.85481,6603.71363 1035.00638,6605.40718 1035.45424,6602.35815 C1035.8827,6599.44319 1038.61312,6587.08637 1038.85359,6586 L1045.57373,6586 L1042.84712,6597.78364 C1042.84712,6597.78364 1042.55003,6599.30912 1042.49564,6600.53502 C1042.49564,6600.53502 1042.27871,6602.2446 1043.62929,6602.64939 Z M1066.12398,6621.57288 L1066.12398,6618.27014 C1066.12398,6618.27014 1064.6538,6622.12425 1057.55483,6621.99691 C1050.45586,6621.8699 1047.21046,6616.52527 1046.08763,6613.05991 C1045.60605,6611.57324 1046.22695,6609.77096 1047.51455,6608.26505 C1049.66002,6605.7552 1053.65641,6603.53947 1057.48517,6601.10082 C1064.85801,6596.55935 1073.09635,6594.50784 1073.09635,6594.50784 C1064.44323,6593.57575 1049.40619,6600.22614 1048.85972,6600.35348 C1048.31389,6600.47985 1048.3562,6599.63276 1048.3562,6599.63276 C1048.3562,6599.63276 1047.44521,6595.55284 1064.07934,6593.18027 C1080.71284,6590.80866 1094.77146,6594.76092 1094.77146,6594.76092 C1090.17898,6593.91318 1082.16966,6595.46624 1079.73315,6596.14398 C1077.29695,6596.82204 1073.89219,6598.40429 1073.09635,6599.78704 C1072.6364,6600.5857 1072.58328,6604.88501 1072.58328,6604.88501 L1072.58328,6621.57288 L1066.12398,6621.57288 Z M1066.29161,6609.75589 C1066.79609,6606.32549 1065.53553,6604.46162 1065.53553,6604.46162 C1063.5615,6601.70832 1067.1323,6599.33671 1067.1323,6599.33671 C1074.44089,6594.80422 1086.37026,6593.95712 1086.37026,6593.95712 C1086.37026,6593.95712 1078.24516,6593.02952 1066.03969,6597.9809 C1053.49132,6603.07214 1052.22027,6607.30377 1052.22027,6608.95145 C1052.22027,6615.83117 1058.39616,6615.89821 1058.94167,6615.89757 C1063.98996,6615.89757 1065.82625,6612.92712 1066.29161,6609.75589 Z M1116.33763,6599.9689 C1120.51247,6602.15159 1125.07123,6602.51724 1125.07123,6602.51724 C1125.07123,6602.51724 1124.65867,6602.67537 1123.10039,6602.67537 C1121.15213,6602.67537 1115.46704,6601.62909 1115.46704,6601.62909 C1115.46704,6601.62909 1107.17335,6599.7216 1103.08376,6600.21331 C1099.68695,6600.62098 1099.38891,6602.21349 1098.68913,6603.53978 C1098.01257,6604.82214 1092.86949,6620.41594 1092.51992,6621.47473 L1085.98777,6621.47537 L1079.39932,6601.84688 C1079.39932,6601.84688 1078.64483,6599.81301 1080.07143,6598.37446 C1081.49835,6596.93558 1083.86489,6595.53103 1088.2153,6595.3838 C1090.86302,6595.29496 1099.68282,6595.66638 1101.11069,6595.83606 C1101.11069,6595.83606 1088.80821,6592.50894 1085.48456,6591.99478 C1082.1396,6591.47581 1080.84405,6591.18265 1079.35161,6590.94978 C1077.00321,6590.58445 1074.77154,6589.98305 1074.2203,6587.73172 L1073.7419,6586 L1080.23683,6586 C1080.23683,6586 1080.40764,6588.63495 1083.8792,6589.65172 C1083.8792,6589.65172 1103.56343,6595.21541 1111.06573,6598.77251 C1111.06573,6598.77251 1105.22732,6596.86149 1099.55654,6596.90864 C1094.43191,6596.9513 1089.42338,6596.45254 1087.3498,6597.27333 C1087.3498,6597.27333 1084.91424,6597.95043 1085.50333,6600.18059 C1086.09051,6602.41075 1089.30982,6610.54107 1089.30982,6610.54107 L1092.92165,6601.05591 C1092.92165,6601.05591 1093.9427,6598.07328 1096.8258,6597.89141 C1096.8258,6597.89141 1099.55463,6597.62038 1102.93076,6597.83464 C1107.59354,6598.13133 1113.41095,6599.73892 1115.67888,6600.67101 C1112.10713,6598.68077 1112.17234,6598.7029 1109.52271,6597.42986 C1106.89407,6596.16675 1102.05635,6593.99946 1100.33966,6593.02631 C1097.57266,6591.52424 1096.93045,6589.87528 1097.62451,6588.04156 C1097.68781,6587.82794 1098.41303,6586 1098.41303,6586 L1104.90796,6586 L1103.58729,6589.96188 C1103.58729,6589.96188 1102.85919,6592.46275 1105.60298,6594.05751 C1110.22631,6596.7457 1111.27375,6597.3208 1116.33763,6599.9689 Z M1114.66704,6592.13495 C1113.68099,6592.13495 1113.79073,6592.94067 1113.79073,6592.94067 C1113.79073,6593.86635 1114.09386,6595.2879 1115.20619,6596.40924 C1116.67287,6597.8882 1124.0543,6601.11397 1129.51292,6601.11397 C1136.49388,6601.11397 1138,6599.55032 1138,6599.55032 C1135.58003,6603.24598 1128.47851,6605.37767 1124.51266,6605.51623 C1120.38204,6605.66089 1116.77466,6605.72087 1115.14512,6605.56306 C1113.70866,6605.42418 1113.84989,6606.02494 1113.84989,6606.48714 L1113.84989,6614.41827 L1126.46632,6614.41827 L1126.46632,6621.47473 L1107.31615,6621.47473 L1107.01843,6604.93119 C1107.01843,6604.93119 1106.8597,6601.79171 1108.96955,6601.79171 C1110.49984,6601.79171 1116.74953,6602.84248 1118.70256,6603.01985 C1119.6409,6603.10549 1122.4658,6603.51156 1125.20067,6603.34349 C1128.23454,6603.15745 1131.13641,6602.42647 1131.13641,6602.42647 C1125.53148,6602.26353 1122.50365,6601.6246 1118.14273,6599.91694 C1112.60778,6597.74996 1109.25837,6594.50175 1109.25837,6594.50175 C1107.08236,6592.30719 1107.31742,6587.76411 1107.31742,6587.76411 L1107.31742,6586 L1126.46632,6586 L1126.46632,6592.13495 L1114.66704,6592.13495 Z" id="Combined-Shape"></path>
        </g>
    </g>
</svg>