<?xml version="1.0" encoding="UTF-8"?>
<svg width="22px" height="18px" viewBox="0 0 22 18" version="1.1" xmlns="http://www.w3.org/2000/svg" xmlns:xlink="http://www.w3.org/1999/xlink">
    <!-- Generator: Sketch 51.3 (57544) - http://www.bohemiancoding.com/sketch -->
    <title>iconmonstr-twitter-1 (1)</title>
    <desc>Created with Sketch.</desc>
    <defs></defs>
    <g id="Page-1" stroke="none" stroke-width="1" fill="none" fill-rule="evenodd">
        <g id="pc" transform="translate(-754.000000, -345.000000)" fill="#000000" fill-rule="nonzero">
            <g id="iconmonstr-twitter-1-(1)" transform="translate(754.000000, 345.000000)">
                <path d="M22,2.3013 C21.1905833,2.6541 20.3206667,2.8917 19.4076667,2.9988 C20.3399167,2.4507 21.0558333,1.5822 21.39225,0.5472 C20.5205,1.0548 19.5543333,1.4238 18.5258333,1.6227 C17.7035833,0.7614 16.5293333,0.2232 15.2313333,0.2232 C12.31725,0.2232 10.1759167,2.8926 10.8340833,5.6637 C7.084,5.4792 3.75833333,3.7152 1.53175,1.0341 C0.34925,3.0258 0.9185,5.6313 2.92783333,6.9507 C2.189,6.9273 1.49233333,6.7284 0.884583333,6.3963 C0.835083333,8.4492 2.33383333,10.3698 4.5045,10.7973 C3.86925,10.9665 3.1735,11.0061 2.46583333,10.8729 C3.03966667,12.6333 4.70616667,13.914 6.6825,13.95 C4.785,15.4107 2.39433333,16.0632 -1.77635684e-15,15.786 C1.99741667,17.0433 4.37066667,17.7768 6.919,17.7768 C15.2991667,17.7768 20.03375,10.8279 19.74775,4.5954 C20.6295833,3.9699 21.395,3.1896 22,2.3013 Z" id="Shape"></path>
            </g>
        </g>
    </g>
</svg>