<?xml version="1.0" encoding="UTF-8"?>
<svg width="502px" height="39px" viewBox="0 0 502 39" version="1.1" xmlns="http://www.w3.org/2000/svg" xmlns:xlink="http://www.w3.org/1999/xlink">
    <!-- Generator: Sketch 51.3 (57544) - http://www.bohemiancoding.com/sketch -->
    <title>Group 77</title>
    <desc>Created with Sketch.</desc>
    <defs>
        <path d="M4.606,2.4248 C5.4054,3.8346 5.7792,6.293 5.3928,8.0696 C4.8678,10.4748 3.1262,12.8576 0.0378,13.4666 C2.0118,13.5128 5.6028,12.7498 8.218,11.5416 C10.668,10.416 12.0918,9.1 12.5762,7.168 C12.8968,5.901 12.5706,3.78 10.6022,2.3548 C9.2456,1.372 7.5684,0.6692 4.8944,0.3108 C3.8192,0.168 2.6418,0.0826 1.8228,0.0784 C3.1514,0.4746 3.8822,1.169 4.606,2.4248" id="path-1"></path>
        <path d="M0.372666667,5.91 C0.515666667,7.11714286 0.970666667,8.09 2.22444444,8.83571429 C2.29811111,7.30714286 2.93222222,5.98428571 3.85522222,5.17571429 C4.90533333,4.26428571 6.292,3.88714286 8.13944444,3.97857143 C9.86988889,4.06571429 10.972,4.35142857 12.545,5.24142857 C12.6518889,4.93428571 12.7212222,4.66571429 12.7862222,4.37714286 C13.0548889,3.16714286 12.9667778,1.65285714 12.6374444,0.351428571 L12.636,0.351428571 C11.7288889,0.285714286 10.8651111,0.254285714 10.0475556,0.254285714 C3.47677778,0.254285714 -0.0534444444,2.36 0.372666667,5.91" id="path-3"></path>
        <linearGradient x1="50%" y1="0%" x2="50%" y2="100%" id="linearGradient-5">
            <stop stop-color="#222222" offset="0%"></stop>
            <stop stop-color="#000000" offset="100%"></stop>
        </linearGradient>
        <path d="M11.7656842,0.208333333 C9.28336842,0.304166667 6.45484211,0.8375 4.14221053,1.85972222 C4.87705263,2.69305556 7.66863158,5.80694444 7.66863158,5.80694444 C9.90052632,4.67083333 13.1778947,4.34305556 17.0997895,4.86388889 C19.7093684,5.20972222 21.3542105,5.92222222 22.6788421,6.89166667 C24.6028421,8.30555556 24.9216842,10.4097222 24.6083158,11.6666667 C24.1348421,13.5833333 22.7431579,14.8888889 20.3484211,16.0055556 C17.8168421,17.1930556 14.2603158,17.9611111 12.3609474,17.9152778 C11.4509474,17.8902778 10.6682105,17.825 9.98126316,17.7041667 C7.09526316,17.2 6.02242105,15.8861111 5.82673684,14.0513889 C5.39842105,10.1847222 9.646,8.06527778 17.446,8.64722222 C17.446,8.63888889 17.4323158,8.57361111 17.4295789,8.56944444 C12.5785263,8.08611111 8.48421053,8.40972222 5.42305263,9.62777778 C1.99789474,11.0152778 0.192947368,13.4361111 0.299684211,16.1458333 C0.381789474,18.1180556 1.248,20.3902778 3.94105263,22.0625 C6.09084211,23.3986111 9.88,23.8736111 13.0629474,23.4416667 C16.2171579,23.0138889 19.4945263,21.4361111 22.1602105,18.6527778 C24.4933684,16.2027778 25.4991579,12.9986111 25.4471579,10.5722222 C25.3992632,7.97083333 24.6534737,5.95138889 23.2070526,4.19166667 C22.0315789,2.76527778 20.1773684,1.57638889 18.1425263,0.929166667 C16.6468421,0.455555556 14.9185263,0.186111111 12.7974737,0.186111111 C12.4649474,0.186111111 12.1187368,0.193055556 11.7656842,0.208333333" id="path-6"></path>
        <path d="M0.665,4.91466667 C1.5946,5.67733333 2.9274,6.396 4.4926,6.65733333 C5.6518,5.04666667 6.4456,3.28666667 6.8054,1.456 L6.8068,1.456 C6.8096,1.44933333 6.8096,1.43866667 6.8096,1.42933333 C4.844,1.45333333 3.199,1.056 2.205,0.330666667 C2.0776,1.76933333 1.5862,3.38266667 0.665,4.91466667" id="path-8"></path>
    </defs>
    <g id="Page-1" stroke="none" stroke-width="1" fill="none" fill-rule="evenodd">
        <g id="pc" transform="translate(-373.000000, -481.000000)">
            <g id="Group-77" transform="translate(373.000000, 481.000000)">
                <g id="Group-51" fill="#222222">
                    <path d="M12.8375667,18.6914277 C11.6218982,17.3176481 10.1388662,16.5718424 8.31745221,16.5718424 C5.34721059,16.5718424 3.05373288,19.1960249 3.05373288,22.0794372 C3.05373288,25.3038685 5.31518267,27.6591173 8.51797485,27.6591173 C10.2739405,27.6591173 11.6901316,26.8523164 12.8375667,25.5714159 L12.8375667,29.4376836 C11.452011,30.1723993 10.0706328,30.4787618 8.48594693,30.4787618 C3.82797308,30.4787618 0.0180429003,26.9188566 0.0180429003,22.2166765 C0.0180429003,17.343987 3.79594516,13.7521979 8.65444165,13.7521979 C10.0706328,13.7521979 11.6218982,14.0848993 12.8375667,14.7918898 L12.8375667,18.6914277 Z" id="Fill-12"></path>
                    <path d="M21.3471071,16.7771469 L21.4473684,16.7771469 C22.1923657,14.9278815 23.7464162,13.7523365 25.7669603,13.7523365 C26.6456394,13.7523365 27.5215334,14.0573128 28.2665307,14.524481 L26.880975,17.2789716 C26.3392853,16.8062583 25.7349324,16.6412938 25.0275331,16.6412938 C21.7537224,16.6412938 21.3471071,19.6619455 21.3471071,22.2168152 L21.3471071,29.9396469 L18.3128096,29.9396469 L18.3128096,14.2195047 L21.3471071,14.2195047 L21.3471071,16.7771469 Z" id="Fill-14"></path>
                    <path d="M42.0615137,20.2997618 C41.6911038,17.9500581 40.1412309,16.3669538 37.7098938,16.3669538 C35.3495753,16.3669538 33.5950021,18.0512547 33.2231998,20.2997618 L42.0615137,20.2997618 Z M33.0574901,22.5856979 C33.089518,25.2722618 34.910932,27.7924751 37.8143327,27.7924751 C40.1412309,27.7924751 41.3889273,26.6183164 42.5363624,24.7330083 L45.0999887,26.1788732 C43.6141716,28.8959348 40.8472377,30.4790391 37.7809123,30.4790391 C32.9558362,30.4790391 30.0218001,26.8525936 30.0218001,22.2169538 C30.0218001,17.3816931 32.6174543,13.7524751 37.7098938,13.7524751 C42.7396701,13.7524751 45.0999887,17.4440746 45.0999887,22.1157571 L45.0999887,22.5856979 L33.0574901,22.5856979 Z" id="Fill-16"></path>
                    <path d="M62.3528732,22.0798531 C62.3528732,19.0273175 60.4980387,16.4377915 57.2270132,16.4377915 C54.0896693,16.4377915 52.2334424,19.1617844 52.2334424,22.0798531 C52.2334424,25.036737 54.0186509,27.7926137 57.2270132,27.7926137 C60.5342442,27.7926137 62.3528732,25.1698175 62.3528732,22.0798531 Z M65.221461,29.9399242 L62.1843785,29.9399242 L62.1843785,27.4862512 L62.1189301,27.4862512 C60.9032616,29.2689763 59.0150067,30.4791777 56.7535569,30.4791777 C51.9312659,30.4791777 49.1991449,26.4812156 49.1991449,21.9828152 C49.1991449,17.6840355 52.0663402,13.7526137 56.6532956,13.7526137 C58.9801938,13.7526137 60.8698411,14.9614289 62.1189301,16.8398057 L62.1843785,16.8398057 L62.1843785,14.219782 L65.221461,14.219782 L65.221461,29.9399242 Z" id="Fill-18"></path>
                    <polygon id="Fill-20" points="74.9991677 29.9399242 71.9634778 29.9399242 71.9634778 17.0421991 70.3105585 17.0421991 70.3105585 14.219782 71.9634778 14.219782 71.9634778 8.21313507 74.9991677 8.21313507 74.9991677 14.219782 77.9680168 14.219782 77.9680168 17.0421991 74.9991677 17.0421991"></polygon>
                    <path d="M83.59769,22.115064 C83.59769,25.0691754 85.9956066,27.5852299 88.9964836,27.5852299 C91.9987531,27.5852299 94.3924922,25.0691754 94.3924922,22.115064 C94.3924922,19.12491 91.9987531,16.6421256 88.9964836,16.6421256 C85.9956066,16.6421256 83.59769,19.12491 83.59769,22.115064 M97.4309672,22.115064 C97.4309672,26.8519005 93.7185133,30.478346 88.9964836,30.478346 C84.2730614,30.478346 80.562,26.8519005 80.562,22.115064 C80.562,17.381 84.2730614,13.7531682 88.9964836,13.7531682 C93.7185133,13.7531682 97.4309672,17.381 97.4309672,22.115064" id="Fill-22"></path>
                    <path d="M104.718016,16.7771469 L104.818277,16.7771469 C105.561882,14.9278815 107.111755,13.7523365 109.136476,13.7523365 C110.015155,13.7523365 110.889657,14.0573128 111.636047,14.524481 L110.250491,17.2789716 C109.710194,16.8062583 109.104448,16.6412938 108.394264,16.6412938 C105.123239,16.6412938 104.718016,19.6619455 104.718016,22.2168152 L104.718016,29.9396469 L101.680933,29.9396469 L101.680933,14.2195047 L104.718016,14.2195047 L104.718016,16.7771469 Z" id="Fill-24"></path>
                    <path d="M135.42959,22.0798531 C135.42959,19.0273175 133.577541,16.4377915 130.30373,16.4377915 C127.166386,16.4377915 125.310159,19.1617844 125.310159,22.0798531 C125.310159,25.036737 127.099545,27.7926137 130.30373,27.7926137 C133.609568,27.7926137 135.42959,25.1698175 135.42959,22.0798531 Z M138.300963,29.9399242 L135.26388,29.9399242 L135.26388,27.4862512 L135.198432,27.4862512 C133.982763,29.2689763 132.093116,30.4791777 129.831666,30.4791777 C125.010768,30.4791777 122.278647,26.4812156 122.278647,21.9828152 C122.278647,17.6840355 125.141664,13.7526137 129.732797,13.7526137 C132.059696,13.7526137 133.949343,14.9614289 135.198432,16.8398057 L135.26388,16.8398057 L135.26388,14.219782 L138.300963,14.219782 L138.300963,29.9399242 Z" id="Fill-26"></path>
                    <path d="M155.967843,22.0798531 C155.967843,19.0273175 154.111616,16.4377915 150.839198,16.4377915 C147.701854,16.4377915 145.844235,19.1617844 145.844235,22.0798531 C145.844235,25.036737 147.633621,27.7926137 150.839198,27.7926137 C154.145036,27.7926137 155.967843,25.1698175 155.967843,22.0798531 Z M158.835038,29.6349479 C158.835038,35.0455047 157.28238,38.9381114 151.142767,38.9381114 C146.760512,38.9381114 143.58557,36.2529336 143.518729,31.8210735 L146.554419,31.8210735 C146.554419,34.6434905 148.5123,36.2529336 151.279234,36.2529336 C155.022323,36.2529336 155.797956,33.7022227 155.797956,30.4791777 L155.797956,27.4862512 L155.729722,27.4862512 C154.516839,29.2689763 152.595164,30.4791777 150.367134,30.4791777 C145.51003,30.4791777 142.81133,26.4812156 142.81133,21.9828152 C142.81133,17.6840355 145.677132,13.7526137 150.233452,13.7526137 C152.595164,13.7526137 154.480633,14.9614289 155.729722,16.911891 L155.797956,16.911891 L155.797956,14.219782 L158.835038,14.219782 L158.835038,29.6349479 Z" id="Fill-28"></path>
                    <path d="M174.889243,20.2997618 C174.520226,17.9500581 172.96896,16.3669538 170.540408,16.3669538 C168.177305,16.3669538 166.424124,18.0512547 166.052322,20.2997618 L174.889243,20.2997618 Z M165.885219,22.5856979 C165.91864,25.2722618 167.738661,27.7924751 170.642062,27.7924751 C172.96896,27.7924751 174.216657,26.6183164 175.364092,24.7330083 L177.92911,26.1788732 C176.443293,28.8959348 173.676359,30.4790391 170.607249,30.4790391 C165.783565,30.4790391 162.849529,26.8525936 162.849529,22.2169538 C162.849529,17.3816931 165.442398,13.7524751 170.540408,13.7524751 C175.567399,13.7524751 177.92911,17.4440746 177.92911,22.1157571 L177.92911,22.5856979 L165.885219,22.5856979 Z" id="Fill-30"></path>
                    <path d="M185.201259,16.3385355 L185.272277,16.3385355 C186.216405,14.6570071 188.103267,13.7531682 190.024943,13.7531682 C194.481001,13.7531682 195.625651,16.7447085 195.625651,20.5652299 L195.625651,29.9404787 L192.591354,29.9404787 L192.591354,20.939519 C192.591354,18.2543412 192.219551,16.4369597 189.117021,16.4369597 C185.201259,16.4369597 185.201259,19.8651706 185.201259,22.7208578 L185.201259,29.9404787 L182.164176,29.9404787 L182.164176,14.2203365 L185.201259,14.2203365 L185.201259,16.3385355 Z" id="Fill-32"></path>
                    <path d="M212.71018,18.6914277 C211.491727,17.3176481 210.008695,16.5718424 208.180318,16.5718424 C205.207291,16.5718424 202.913814,19.1960249 202.913814,22.0794372 C202.913814,25.3038685 205.173871,27.6591173 208.382233,27.6591173 C210.140984,27.6591173 211.558568,26.8523164 212.71018,25.5714159 L212.71018,29.4376836 C211.320447,30.1723993 209.937676,30.4787618 208.348813,30.4787618 C203.688054,30.4787618 199.879516,26.9188566 199.879516,22.2166765 C199.879516,17.343987 203.657419,13.7521979 208.5187,13.7521979 C209.937676,13.7521979 211.491727,14.0848993 212.71018,14.7918898 L212.71018,18.6914277 Z" id="Fill-34"></path>
                    <polygon id="Fill-36" points="216.169753 14.2199206 219.71789 14.2199206 225.04845 24.2009633 230.009993 14.2199206 233.4147 14.2199206 220.629989 38.93825 217.186291 38.93825 223.394138 27.2507263"></polygon>
                    <path d="M259.391573,22.0798531 C259.391573,19.0273175 257.535346,16.4377915 254.262928,16.4377915 C251.126976,16.4377915 249.269357,19.1617844 249.269357,22.0798531 C249.269357,25.036737 251.05735,27.7926137 254.262928,27.7926137 C257.571551,27.7926137 259.391573,25.1698175 259.391573,22.0798531 Z M246.407732,0.789734597 L249.439244,0.789734597 L249.439244,16.8398057 L249.504692,16.8398057 C250.753781,14.9614289 252.643429,13.7526137 255.007925,13.7526137 C259.56146,13.7526137 262.424478,17.6840355 262.424478,21.9828152 C262.424478,26.4812156 259.729955,30.4791777 254.871458,30.4791777 C252.643429,30.4791777 250.724539,29.2689763 249.504692,27.4862512 L249.439244,27.4862512 L249.439244,29.9399242 L246.407732,29.9399242 L246.407732,0.789734597 Z" id="Fill-38"></path>
                    <polygon id="Fill-40" points="265.220654 14.2199206 268.761829 14.2199206 274.092389 24.2009633 279.055324 14.2199206 282.457246 14.2199206 269.676713 38.93825 266.234408 38.93825 272.440862 27.2507263"></polygon>
                    <polygon id="Fill-42" points="480.376992 11.0684064 476.452876 11.0684064 470.49986 25.707269 468.316391 20.2426481 472.169489 11.0684064 468.242587 11.0684064 466.430921 15.5335367 464.64989 11.0684064 460.720203 11.0684064 464.493928 20.2925533 462.300712 25.707269 456.445172 11.0684064 452.51827 11.0684064 462.224123 34.7539751 466.373828 24.8658116 470.420486 34.7539751"></polygon>
                    <polygon id="Fill-44" points="441.559151 14.6517393 441.559151 34.7538365 437.976201 34.7538365 437.976201 14.6517393 431.037282 14.6517393 431.037282 11.0751991 448.473005 11.0751991 448.473005 14.6517393"></polygon>
                    <polygon id="Fill-46" points="488.011335 20.2347464 498.272803 20.2347464 498.272803 11.0757536 501.855752 11.0757536 501.855752 34.754391 498.272803 34.754391 498.272803 23.8015829 488.011335 23.8015829 488.011335 34.754391 484.424208 34.754391 484.424208 11.0757536 488.011335 11.0757536"></polygon>
                    <polygon id="Fill-48" points="417.841779 36.2670735 419.848398 36.2670735 419.848398 9.55669431 417.841779 9.55669431"></polygon>
                </g>
                <g id="Group-54" transform="translate(389.000000, 15.000000)">
                    <mask id="mask-2" fill="white">
                        <use xlink:href="#path-1"></use>
                    </mask>
                    <g id="Clip-53"></g>
                    <path d="M4.606,2.4248 C5.4054,3.8346 5.7792,6.293 5.3928,8.0696 C4.8678,10.4748 3.1262,12.8576 0.0378,13.4666 C2.0118,13.5128 5.6028,12.7498 8.218,11.5416 C10.668,10.416 12.0918,9.1 12.5762,7.168 C12.8968,5.901 12.5706,3.78 10.6022,2.3548 C9.2456,1.372 7.5684,0.6692 4.8944,0.3108 C3.8192,0.168 2.6418,0.0826 1.8228,0.0784 C3.1514,0.4746 3.8822,1.169 4.606,2.4248" id="Fill-52" fill="#222222" mask="url(#mask-2)"></path>
                </g>
                <g id="Group-57" transform="translate(382.000000, 19.000000)">
                    <mask id="mask-4" fill="white">
                        <use xlink:href="#path-3"></use>
                    </mask>
                    <g id="Clip-56"></g>
                    <path d="M0.372666667,5.91 C0.515666667,7.11714286 0.970666667,8.09 2.22444444,8.83571429 C2.29811111,7.30714286 2.93222222,5.98428571 3.85522222,5.17571429 C4.90533333,4.26428571 6.292,3.88714286 8.13944444,3.97857143 C9.86988889,4.06571429 10.972,4.35142857 12.545,5.24142857 C12.6518889,4.93428571 12.7212222,4.66571429 12.7862222,4.37714286 C13.0548889,3.16714286 12.9667778,1.65285714 12.6374444,0.351428571 L12.636,0.351428571 C11.7288889,0.285714286 10.8651111,0.254285714 10.0475556,0.254285714 C3.47677778,0.254285714 -0.0534444444,2.36 0.372666667,5.91" id="Fill-55" fill="url(#linearGradient-5)" mask="url(#mask-4)"></path>
                </g>
                <g id="Group-60" transform="translate(376.000000, 11.000000)">
                    <mask id="mask-7" fill="white">
                        <use xlink:href="#path-6"></use>
                    </mask>
                    <g id="Clip-59"></g>
                    <path d="M11.7656842,0.208333333 C9.28336842,0.304166667 6.45484211,0.8375 4.14221053,1.85972222 C4.87705263,2.69305556 7.66863158,5.80694444 7.66863158,5.80694444 C9.90052632,4.67083333 13.1778947,4.34305556 17.0997895,4.86388889 C19.7093684,5.20972222 21.3542105,5.92222222 22.6788421,6.89166667 C24.6028421,8.30555556 24.9216842,10.4097222 24.6083158,11.6666667 C24.1348421,13.5833333 22.7431579,14.8888889 20.3484211,16.0055556 C17.8168421,17.1930556 14.2603158,17.9611111 12.3609474,17.9152778 C11.4509474,17.8902778 10.6682105,17.825 9.98126316,17.7041667 C7.09526316,17.2 6.02242105,15.8861111 5.82673684,14.0513889 C5.39842105,10.1847222 9.646,8.06527778 17.446,8.64722222 C17.446,8.63888889 17.4323158,8.57361111 17.4295789,8.56944444 C12.5785263,8.08611111 8.48421053,8.40972222 5.42305263,9.62777778 C1.99789474,11.0152778 0.192947368,13.4361111 0.299684211,16.1458333 C0.381789474,18.1180556 1.248,20.3902778 3.94105263,22.0625 C6.09084211,23.3986111 9.88,23.8736111 13.0629474,23.4416667 C16.2171579,23.0138889 19.4945263,21.4361111 22.1602105,18.6527778 C24.4933684,16.2027778 25.4991579,12.9986111 25.4471579,10.5722222 C25.3992632,7.97083333 24.6534737,5.95138889 23.2070526,4.19166667 C22.0315789,2.76527778 20.1773684,1.57638889 18.1425263,0.929166667 C16.6468421,0.455555556 14.9185263,0.186111111 12.7974737,0.186111111 C12.4649474,0.186111111 12.1187368,0.193055556 11.7656842,0.208333333" id="Fill-58" fill="#222222" mask="url(#mask-7)"></path>
                </g>
                <g id="Group-63" transform="translate(400.000000, 22.000000)">
                    <mask id="mask-9" fill="white">
                        <use xlink:href="#path-8"></use>
                    </mask>
                    <g id="Clip-62"></g>
                    <path d="M0.665,4.91466667 C1.5946,5.67733333 2.9274,6.396 4.4926,6.65733333 C5.6518,5.04666667 6.4456,3.28666667 6.8054,1.456 L6.8068,1.456 C6.8096,1.44933333 6.8096,1.43866667 6.8096,1.42933333 C4.844,1.45333333 3.199,1.056 2.205,0.330666667 C2.0776,1.76933333 1.5862,3.38266667 0.665,4.91466667" id="Fill-61" fill="#222222" mask="url(#mask-9)"></path>
                </g>
                <g id="Group-72" transform="translate(297.000000, 17.000000)" fill="#222222">
                    <polygon id="Fill-64" points="32.1541469 0.4074 30.4555347 0.4074 24.8129224 11.3274 23.9414122 11.3274 18.3029633 0.4074 16.5988 0.4074 22.9741469 12.7386 24.084351 12.7386 24.6727592 12.7386 25.7829633 12.7386"></polygon>
                    <polygon id="Fill-66" points="61.1397714 6.2412 66.6436082 0.4046 64.6743837 0.4046 59.7908735 5.5916 57.4441796 5.5916 52.5523429 0.4046 50.5900571 0.4046 56.0786286 6.2286 49.9433633 12.7358 51.8862204 12.7358 57.3373224 6.958 59.8658122 6.958 65.3252408 12.7358 67.2653224 12.7358"></polygon>
                    <path d="M46.1943429,5.59174 L36.1372816,5.59174 C36.582751,3.24534 38.6643837,1.47014 41.1678939,1.47014 C43.6658531,1.47014 45.7433224,3.24534 46.1943429,5.59174 M47.6806286,6.52834 C47.6806286,2.96254 44.7635673,0.07154 41.1678939,0.07154 C37.5652816,0.07154 34.6509959,2.96254 34.6509959,6.52834 C34.6509959,10.09414 37.5652816,12.98654 41.1678939,12.98654 C43.983649,12.98654 46.3858531,11.20854 47.2906694,8.72774 L45.7794041,8.72774 C44.9550776,10.43014 43.1995673,11.60754 41.1678939,11.60754 C38.4798122,11.60754 36.2816082,9.56354 36.0706694,6.95814 L47.6806286,6.95814 L47.6806286,6.52834" id="Fill-68"></path>
                    <path d="M11.6386857,8.65424 C11.6386857,10.27124 9.39052245,11.58164 6.62056327,11.58164 C3.85476735,11.58164 1.60660408,10.27124 1.60660408,8.65424 C1.60660408,7.03444 3.85476735,5.72264 6.62056327,5.72264 C9.39052245,5.72264 11.6386857,7.03444 11.6386857,8.65424 Z M13.0639102,4.38424 L13.0625224,4.38424 C13.0902776,2.08684 10.1315837,-0.01036 6.57476735,0.07084 L6.57199184,0.07084 L6.5608898,0.07084 C4.51672653,0.07084 2.69876735,0.69244 1.5039102,1.66964 L1.87860408,2.11904 L2.35321633,2.74904 C3.24693061,1.91044 4.79705306,1.36444 6.5608898,1.36444 C9.3239102,1.36444 11.6386857,2.71404 11.6386857,4.38424 L11.6386857,5.75064 C10.418849,4.87004 8.65501224,4.32264 6.69966531,4.32264 C3.01517551,4.32264 0.0287265306,6.26304 0.0287265306,8.65424 C0.0287265306,11.04404 3.01517551,12.98724 6.69966531,12.98724 C8.83403265,12.98724 10.7421959,12.32504 11.9606449,11.30864 C12.0883184,11.81264 12.2520735,12.29144 12.4519102,12.72544 L13.7064408,12.04224 C13.3164816,11.21064 13.0833388,10.15924 13.0639102,9.00984 L13.0639102,4.38424 Z" id="Fill-70"></path>
                </g>
            </g>
        </g>
    </g>
</svg>