<?xml version="1.0" encoding="UTF-8"?>
<svg width="112px" height="30px" viewBox="0 0 112 30" version="1.1" xmlns="http://www.w3.org/2000/svg" xmlns:xlink="http://www.w3.org/1999/xlink">
    <!-- Generator: Sketch 51.3 (57544) - http://www.bohemiancoding.com/sketch -->
    <title>Group</title>
    <desc>Created with Sketch.</desc>
    <defs>
        <path d="M33.1229867,13.8744903 C33.702296,14.0476943 34.504662,13.8822417 35.8719808,13.3628972 C37.9781251,12.5626309 47.7617793,7.99785196 54.7360891,7.4798439 C54.7360891,7.4798439 48.2881824,9.04295593 42.1446856,13.0803717 C42.1446856,13.0803717 32.8908907,18.9968363 30.6441065,21.1148424 C30.6441065,21.1148424 29.3802072,22.1500566 29.0056102,24.4094591 C28.6506869,26.5504522 28.2117518,29.2832254 28.1665556,29.5625434 L22.7259931,29.563078 L21.328632,24.9274672 C21.328632,24.9274672 20.2984239,22.4325822 22.4518912,21.6796262 C22.4518912,21.6796262 31.8612143,18.8089314 41.2234801,12.5024907 C41.2234801,12.5024907 30.9253865,18.8549053 20.8139267,15.3723836 C20.8139267,15.3723836 18.7234682,14.8214989 18.1460199,13.065938 C17.75813,11.8866544 17.6988431,11.2788369 17.6055262,10.5020921 C17.6055262,10.5020921 15.4052675,14.1030233 17.1136849,15.0203626 C18.8226341,15.937702 27.1193323,18.7618883 35.2644903,15.4792996 C35.2644903,15.4792996 28.1024833,19.9970355 17.0084043,21.3388314 C17.0084043,21.3388314 16.7114385,21.3914875 16.2392708,21.4708727 C15.1407366,21.6566392 13.5708323,22.5076907 13.0061453,24.4450087 C12.2332898,27.0922491 11.7770737,29.5620088 11.7770737,29.5620088 L6.4056349,29.5620088 L4.40450541,20.6329185 C4.40450541,20.6329185 3.65823592,17.9589491 5.94915299,18.3029514 C8.47801491,18.6830378 16.2714399,20.22049 22.0756991,18.432587 C22.0756991,18.432587 12.1631027,17.7737171 6.75657032,13.0787679 C1.71160776,8.69895368 0.182114215,1.00901982 0,0 L5.37994637,0 C5.50516651,0.855595352 6.5390967,6.05893016 7.56451937,8.87857257 C8.55006302,11.5894279 10.5137062,17.2557091 24.6973462,17.6323207 C24.6973462,17.6323207 17.4412246,17.1148472 13.5559441,14.5261434 C13.5559441,14.5261434 11.3562171,13.4433515 12.7602246,8.21970267 C14.0472537,3.43307301 14.7839523,0.464015474 14.8980063,0 L19.5667767,0.000534580039 L22.9663307,12.3140512 C22.9663307,12.3140512 23.5286249,15.184746 26.8050856,15.3731855 C30.0820781,15.5613576 32.8435676,14.9024877 33.3114815,14.7613586 C33.3114815,14.7613586 25.9157834,16.1726499 26.2901145,13.631791 C26.6482281,11.2026593 28.9303718,0.905311295 29.1313621,0 L34.7481899,0 L32.4692365,9.81970073 C32.4692365,9.81970073 32.2209231,11.0909321 32.175461,12.1125145 C32.175461,12.1125145 31.9941444,13.5371703 33.1229867,13.8744903 Z M51.9245196,29.6440699 L51.9245196,26.8917846 C51.9245196,26.8917846 50.6957139,30.1035414 44.7622467,29.9974273 C38.8287794,29.8915804 36.1162081,25.4377269 35.1777217,22.5499255 C34.7752094,21.3110362 35.2941685,19.8091336 36.3703705,18.554207 C38.1635973,16.4626626 41.5038645,14.6162231 44.7040233,12.5840171 C50.8663961,8.79945773 57.7521745,7.08987077 57.7521745,7.08987077 C50.5197145,6.31312597 37.9514409,11.8551172 37.4946931,11.9612314 C37.0384771,12.0665436 37.0738365,11.3606307 37.0738365,11.3606307 C37.0738365,11.3606307 36.3124129,7.96070165 50.2155705,5.98355738 C64.1181962,4.00721497 75.868684,7.30076259 75.868684,7.30076259 C72.0301949,6.59431507 65.3358358,7.88853334 63.2993469,8.45331716 C61.2631239,9.01836826 58.4173567,10.3369099 57.7521745,11.4891972 C57.3677407,12.1547493 57.3233421,15.7375048 57.3233421,15.7375048 L57.3233421,29.6440699 L51.9245196,29.6440699 Z M52.0646279,19.796571 C52.4862822,16.9379042 51.4326783,15.3846819 51.4326783,15.3846819 C49.7827501,13.0902644 52.7672964,11.113922 52.7672964,11.113922 C58.8759654,7.33684674 68.8467852,6.6309338 68.8467852,6.6309338 C68.8467852,6.6309338 62.0556531,5.85793107 51.8540667,9.9840871 C41.365883,14.2267816 40.3035058,17.7531388 40.3035058,19.1262076 C40.3035058,24.8593113 45.4654468,24.9151749 45.921397,24.9146403 C50.1408637,24.9146403 51.6756745,22.4392674 52.0646279,19.796571 Z M93.8941386,11.6407476 C97.3835533,13.4596562 101.193861,13.7643668 101.193861,13.7643668 C101.193861,13.7643668 100.849041,13.8961408 99.5465916,13.8961408 C97.9181981,13.8961408 93.1664793,13.0242408 93.1664793,13.0242408 C93.1664793,13.0242408 86.2344413,11.434667 82.8162771,11.8444226 C79.9771564,12.1841482 79.7280454,13.5112432 79.143153,14.6164874 C78.5776684,15.6851129 74.2789754,28.6799518 73.986795,29.5622761 L68.5270906,29.5628107 L63.0203289,13.2057307 C63.0203289,13.2057307 62.3897086,11.5108447 63.5820915,10.3120489 C64.7747402,9.11298592 66.7527398,7.94252292 70.3889094,7.81983681 C72.6019294,7.74579747 79.9737002,8.05531931 81.1671465,8.19671573 C81.1671465,8.19671573 70.8844727,5.42411636 68.1064998,4.99565046 C65.3107143,4.56317521 64.2278658,4.31887213 62.9804499,4.12481958 C61.0176043,3.82037625 59.1523294,3.31920746 58.6915937,1.44309881 L58.29174,0 L63.7203388,0 C63.7203388,0 63.8631057,2.19578751 66.7647036,3.04309687 C66.7647036,3.04309687 83.2171942,7.67950955 89.4877722,10.6437559 C89.4877722,10.6437559 84.6079088,9.05124192 79.8681537,9.09053356 C75.5848805,9.12608313 71.3986463,8.71044715 69.6655039,9.39444231 C69.6655039,9.39444231 67.6298125,9.95869154 68.1221856,11.817159 C68.6129634,13.6756265 71.3037342,20.450894 71.3037342,20.450894 L74.3225764,12.5465935 C74.3225764,12.5465935 75.1759876,10.0610636 77.5857441,9.90951018 C77.5857441,9.90951018 79.8665585,9.68365011 82.6883983,9.86219984 C86.5856426,10.1094431 91.4479592,11.4491007 93.3435422,12.2258455 C90.3581984,10.5673109 90.4126997,10.5857539 88.1980845,9.52487984 C86.001016,8.47229174 81.9575487,6.66621308 80.5227014,5.85525516 C78.2099838,4.603536 77.6732121,3.22939801 78.253319,1.70130097 C78.3062252,1.52328582 78.9123864,0 78.9123864,0 L84.3409852,0 L83.2371337,3.30156632 C83.2371337,3.30156632 82.6285798,5.3856266 84.9218896,6.71459258 C88.7861672,8.95475023 89.6616447,9.43400123 93.8941386,11.6407476 Z M92.4978273,5.1124562 C91.6736608,5.1124562 91.7653826,5.78388873 91.7653826,5.78388873 C91.7653826,6.55528772 92.0187473,7.73991709 92.9484603,8.674363 C94.1743416,9.90683728 100.343893,12.594973 104.906319,12.594973 C110.741152,12.594973 112,11.2919342 112,11.2919342 C109.977336,14.3716498 104.041742,16.1480592 100.726997,16.2635285 C97.274537,16.3840763 94.2594168,16.4340595 92.8974152,16.3025529 C91.6967907,16.1868163 91.8148326,16.6874505 91.8148326,17.0726154 L91.8148326,23.6818957 L102.35991,23.6818957 L102.35991,29.5622761 L86.3537988,29.5622761 L86.1049537,15.7759915 C86.1049537,15.7759915 85.9722895,13.1597568 87.73574,13.1597568 C89.0147933,13.1597568 94.2384139,14.0353989 95.8707953,14.1832103 C96.6550828,14.2545767 99.016187,14.5929659 101.302053,14.4529059 C103.837827,14.2978777 106.263269,13.6887238 106.263269,13.6887238 C101.578547,13.5529404 99.0478243,13.0204987 95.4028814,11.5974466 C90.7766486,9.79163528 87.977141,7.08478925 87.977141,7.08478925 C86.1583916,5.25599094 86.3548623,1.47009511 86.3548623,1.47009511 L86.3548623,0 L102.35991,0 L102.35991,5.1124562 L92.4978273,5.1124562 Z" id="path-1"></path>
    </defs>
    <g id="Page-1" stroke="none" stroke-width="1" fill="none" fill-rule="evenodd">
        <g id="pc" transform="translate(-81.000000, -60.000000)">
            <g id="Group" transform="translate(81.000000, 60.000000)">
                <mask id="mask-2" fill="white">
                    <use xlink:href="#path-1"></use>
                </mask>
                <use id="Mask" fill="#222222" xlink:href="#path-1"></use>
            </g>
        </g>
    </g>
</svg>