<?xml version="1.0" encoding="UTF-8"?>
<svg width="619px" height="221px" viewBox="0 0 619 221" version="1.1" xmlns="http://www.w3.org/2000/svg" xmlns:xlink="http://www.w3.org/1999/xlink">
    <!-- Generator: Sketch 51.3 (57544) - http://www.bohemiancoding.com/sketch -->
    <title>Group 67</title>
    <desc>Created with Sketch.</desc>
    <defs>
        <polygon id="path-1" points="0 0.616499692 302.481986 0.616499692 302.481986 162.927177 0 162.927177"></polygon>
        <polygon id="path-3" points="0.0676496077 0.616352941 237.153005 0.616352941 237.153005 162.925122 0.0676496077 162.925122"></polygon>
        <polygon id="path-5" points="1.15223782 0.616352941 144.265773 0.616352941 144.265773 162.922481 1.15223782 162.922481"></polygon>
        <polygon id="path-7" points="0 220.12605 618.815829 220.12605 618.815829 0.616352941 0 0.616352941"></polygon>
    </defs>
    <g id="Page-1" stroke="none" stroke-width="1" fill="none" fill-rule="evenodd">
        <g id="pc" transform="translate(-356.000000, -584.000000)">
            <g id="Group-67" transform="translate(356.000000, 584.000000)">
                <polygon id="Fill-1" fill="#231916" points="384.243697 196.680672 382.396708 196.680672 376.252796 208.211823 375.303352 208.211823 369.160967 196.680672 367.310924 196.680672 374.25011 209.705882 375.452943 209.705882 376.100152 209.705882 377.304512 209.705882"></polygon>
                <polygon id="Fill-2" fill="#231916" points="414.26979 202.845161 420.058913 196.680672 417.992424 196.680672 412.845389 202.157894 410.375934 202.157894 405.231851 196.680672 403.162409 196.680672 408.942676 202.830221 402.478992 209.705882 404.524816 209.705882 410.265229 203.599661 412.926572 203.599661 418.668461 209.705882 420.714286 209.705882"></polygon>
                <g id="Group-66">
                    <path d="M398.243483,202.501585 L387.710829,202.501585 C388.173626,200.068458 390.350972,198.225269 392.972014,198.225269 C395.591588,198.225269 397.773341,200.068458 398.243483,202.501585 M399.802299,203.474542 C399.802299,199.773489 396.741967,196.775372 392.972014,196.775372 C389.202062,196.775372 386.147607,199.773489 386.147607,203.474542 C386.147607,207.171192 389.202062,210.167841 392.972014,210.167841 C395.930972,210.167841 398.444763,208.330523 399.395332,205.756515 L397.81154,205.756515 C396.944716,207.521926 395.105284,208.742892 392.972014,208.742892 C390.159976,208.742892 387.853341,206.619409 387.632962,203.917729 L399.802299,203.917729 L399.802299,203.474542" id="Fill-3" fill="#231916"></path>
                    <path d="M362.035777,205.677417 C362.035777,207.356245 359.67919,208.716624 356.779,208.716624 C353.872934,208.716624 351.519284,207.356245 351.519284,205.677417 C351.519284,203.998589 353.872934,202.635275 356.779,202.635275 C359.67919,202.635275 362.035777,203.998589 362.035777,205.677417 Z M363.52554,201.241143 C363.557863,198.859379 360.447578,196.686001 356.730517,196.775519 L356.727578,196.775519 L356.712886,196.775519 C354.578147,196.775519 352.666725,197.418287 351.414972,198.427932 L351.804308,198.900469 L352.305303,199.549107 C353.238242,198.686213 354.863171,198.112418 356.712886,198.112418 C359.611607,198.112418 362.035777,199.51242 362.035777,201.241143 L362.035777,202.660222 C360.756109,201.753303 358.910801,201.182443 356.853929,201.182443 C353.001701,201.182443 349.873787,203.19146 349.873787,205.677417 C349.873787,208.154569 353.001701,210.167988 356.853929,210.167988 C359.095919,210.167988 361.094024,209.488532 362.373692,208.427525 C362.505919,208.95436 362.677815,209.45478 362.883502,209.906772 L364.198431,209.190628 C363.792934,208.330669 363.546109,207.240312 363.52554,206.048696 L363.52554,201.241143 Z" id="Fill-5" fill="#231916"></path>
                    <path d="M456.065682,212.543442 C456.942791,214.260425 458.716109,215.534221 461.112365,216.171119 C461.935114,215.632544 464.78682,213.75707 466.407341,212.684322 C462.719664,211.526459 460.512934,210.167548 459.250896,208.271529 C458.544213,209.650985 457.606867,210.976144 456.582839,212.029814 C456.412412,212.204448 456.239047,212.377613 456.065682,212.543442" id="Fill-7" fill="#231916"></path>
                    <path d="M447.18881,199.821624 C442.522649,199.821624 439.125872,200.737348 437.459806,202.473409 C436.573882,203.396471 436.206583,204.538191 436.368194,205.878025 C436.488668,206.937565 436.811891,207.684526 437.439237,208.289139 C437.727199,206.804022 438.430943,205.497941 439.449095,204.604229 C440.805161,203.412613 442.607863,202.888713 444.967389,203.011984 C446.91554,203.116177 448.215777,203.431691 449.758431,204.222677 C449.777531,204.147834 449.79663,204.071524 449.817199,203.987876 C450.072839,202.822675 450.040517,201.324351 449.746678,199.908206 C448.854877,199.849506 448.001275,199.821624 447.18881,199.821624" id="Fill-9" fill="#231916"></path>
                    <path d="M448.699583,195.168306 C449.171194,195.627635 449.591384,196.204366 450.004227,196.926379 C451.0929,198.831203 451.541005,201.980473 451.044417,204.252174 C450.628635,206.11444 449.570815,208.190963 447.710815,209.64086 C449.63546,209.25197 451.796645,208.61654 453.606692,207.782996 C456.534796,206.432889 458.068635,204.915487 458.582853,202.86538 C458.872284,201.722192 458.735649,199.341895 456.412853,197.6616 C454.66745,196.399544 452.604701,195.667258 449.735365,195.285706 C449.403327,195.243148 449.05072,195.202058 448.699583,195.168306" id="Fill-11" fill="#231916"></path>
                    <path d="M438.45827,200.217263 C437.384289,200.446195 436.392583,200.745566 435.475806,201.10804 C431.539834,202.66213 429.349265,205.35207 429.471209,208.48373 C429.552014,210.439917 430.349787,213.194428 433.718649,215.251873 C436.145758,216.739925 440.659123,217.3959 444.697938,216.855858 C448.736754,216.31875 452.630118,214.295058 455.677227,211.157528 C457.672393,209.107421 458.781635,206.709514 459.2841,204.587499 C458.40846,206.3353 456.7659,207.710354 454.134573,208.923982 C451.108033,210.313712 446.505047,211.401134 443.884005,211.317486 C442.691019,211.288136 441.681682,211.198618 440.826611,211.05627 C437.294668,210.447255 435.428791,208.805114 435.112915,206.019786 C434.923389,204.289595 435.41263,202.805946 436.568886,201.60259 C437.081635,201.069885 437.714858,200.610555 438.45827,200.217263" id="Fill-13" fill="#231916"></path>
                    <path d="M445.517308,193.741008 C446.893943,193.741008 448.35873,193.839331 449.899915,194.041847 C452.982284,194.446879 455.219867,195.248138 457.14745,196.64227 C458.196455,197.400971 458.919299,198.3255 459.368872,199.288185 C458.995697,197.378958 458.211147,195.739753 456.956455,194.241428 C455.581289,192.590483 453.381905,191.197819 450.92982,190.428845 C448.739251,189.740584 446.207829,189.463225 443.178351,189.571821 C440.217924,189.678949 437.182569,190.277692 434.711384,191.216896 C435.747166,192.364487 437.48963,194.279583 438.196313,195.057362 C440.160626,194.182728 442.639156,193.741008 445.517308,193.741008" id="Fill-15" fill="#231916"></path>
                    <g id="Group-19">
                        <mask id="mask-2" fill="white">
                            <use xlink:href="#path-1"></use>
                        </mask>
                        <g id="Clip-18"></g>
                        <path d="M183.043834,76.7918532 C186.245209,77.7427977 190.679237,76.8344109 198.235303,73.9830448 C209.874261,69.5893288 263.940611,44.5272442 302.481986,41.6832157 C302.481986,41.6832157 266.849616,50.2651966 232.899474,72.4318899 C232.899474,72.4318899 181.761227,104.915157 169.345066,116.543683 C169.345066,116.543683 162.360517,122.227338 160.290422,134.632174 C158.329047,146.386905 155.903408,161.390697 155.653645,162.924242 L125.588052,162.927177 L117.865967,137.476203 C117.865967,137.476203 112.172839,123.778492 124.073313,119.644525 C124.073313,119.644525 176.071038,103.8835 227.808716,69.2591397 C227.808716,69.2591397 170.899474,104.135911 115.021607,85.0157624 C115.021607,85.0157624 103.469332,81.9912305 100.278242,72.3526445 C98.1346872,65.8780036 97.8070569,62.5408927 97.2913697,58.2763173 C97.2913697,58.2763173 85.1323175,78.0465717 94.5733602,83.0830557 C104.017341,88.1195397 149.866488,103.625219 194.878194,85.6027652 C194.878194,85.6027652 155.299569,110.406569 93.9915592,117.773454 C93.9915592,117.773454 92.3504692,118.062553 89.7411801,118.498402 C83.6704692,119.51832 74.9948768,124.190862 71.8743081,134.827353 C67.6033602,149.361542 65.0822227,162.921307 65.0822227,162.921307 L35.3986209,162.921307 L24.3399953,113.897768 C24.3399953,113.897768 20.2159668,99.2168277 32.8760142,101.105509 C46.8509905,103.192304 89.9189526,111.633404 121.994403,101.81725 C121.994403,101.81725 67.2154929,98.1998454 37.3379573,72.4230848 C9.45852607,48.3765151 1.00625118,6.15633863 -0.000146919431,0.616499692 L29.7304692,0.616499692 C30.4224597,5.31398961 36.1361564,33.8819484 41.8028389,49.3626798 C47.2491422,64.2461358 58.1006114,95.3558168 136.482128,97.4235341 C136.482128,97.4235341 96.3834076,94.5824406 74.9126019,80.3696353 C74.9126019,80.3696353 62.7564882,74.4247644 70.5153033,45.745275 C77.627673,19.4651596 81.6988104,3.16409185 82.3290948,0.616499692 L108.129616,0.619434706 L126.916204,68.2245473 C126.916204,68.2245473 130.02355,83.9855725 148.1299,85.020165 C166.23919,86.0532899 181.499711,82.4358851 184.085493,81.6610414 C184.085493,81.6610414 143.215445,89.4094784 145.284071,75.4593568 C147.263076,62.1226532 159.87464,5.58694591 160.985351,0.616499692 L192.025019,0.616499692 L179.431085,54.529772 C179.431085,54.529772 178.058858,61.5092353 177.807626,67.118047 C177.807626,67.118047 176.805635,74.9398594 183.043834,76.7918532" id="Fill-17" fill="#231916" mask="url(#mask-2)"></path>
                    </g>
                    <path d="M287.422597,108.856294 C289.752739,93.1613068 283.930322,84.6336236 283.930322,84.6336236 C274.812502,72.0365435 291.305678,61.1857967 291.305678,61.1857967 C325.063355,40.4484553 380.164019,36.5727693 380.164019,36.5727693 C380.164019,36.5727693 342.634919,32.328739 286.258995,54.9826446 C228.29928,78.2763833 222.428379,97.6372032 222.428379,105.175787 C222.428379,136.652344 250.954256,136.959053 253.473924,136.956118 C276.791507,136.956118 285.273166,123.365536 287.422597,108.856294 Z M286.648332,162.922187 L286.648332,147.811268 C286.648332,147.811268 279.857716,165.444832 247.068237,164.862231 C214.278758,164.281099 199.288569,139.828029 194.102313,123.973084 C191.877953,117.171189 194.74582,108.925267 200.693118,102.035322 C210.602834,90.5520794 229.061791,80.414541 246.746483,69.2570852 C280.800938,48.4786536 318.853071,39.0924788 318.853071,39.0924788 C278.885109,34.8279034 209.430417,65.2551936 206.906341,65.8377939 C204.385204,66.4159917 204.580607,62.5403057 204.580607,62.5403057 C204.580607,62.5403057 200.372834,43.8736166 277.204351,33.0184673 C354.032929,22.1677205 418.968379,40.2503418 418.968379,40.2503418 C397.756152,36.3717208 360.761839,43.4773897 349.50781,46.578232 C338.255251,49.6805418 322.528995,56.9197539 318.853071,63.2461766 C316.728616,66.900269 316.483261,86.5707329 316.483261,86.5707329 L316.483261,162.922187 L286.648332,162.922187 Z" id="Fill-20" fill="#231916"></path>
                    <g id="Group-24" transform="translate(321.586881, 0.000000)">
                        <mask id="mask-4" fill="white">
                            <use xlink:href="#path-3"></use>
                        </mask>
                        <g id="Clip-23"></g>
                        <path d="M196.813337,64.5273102 C173.423763,52.4115724 168.585706,49.7803323 147.230967,37.4811561 C134.557697,30.1847113 137.920683,18.7425592 137.920683,18.7425592 L144.020778,0.615912689 L114.021299,0.615912689 C114.021299,0.615912689 110.671536,8.9792351 110.379166,9.95659476 C107.173384,18.3463323 110.139688,25.8907858 122.920209,32.7631211 C130.849451,37.2155373 153.194427,47.1314822 165.335849,52.9105247 C177.574237,58.73506 177.273052,58.633802 193.770635,67.739683 C183.29528,63.4751076 156.425185,56.1199625 134.888266,54.7625186 C119.294237,53.7822239 106.690019,55.0222673 106.690019,55.0222673 C93.373242,55.8543438 88.6571283,69.5006914 88.6571283,69.5006914 L71.9744269,112.897808 C71.9744269,112.897808 57.1047112,75.699441 54.3925785,65.4958648 C51.6716307,55.2922886 62.9212515,52.1943813 62.9212515,52.1943813 C72.4989292,48.4390309 95.6328629,50.7210043 119.303052,50.5258259 C145.495849,50.3101023 172.46291,59.053509 172.46291,59.053509 C137.810493,42.7788564 46.8908724,17.3234799 46.8908724,17.3234799 C30.8560856,12.6714827 30.0671283,0.615912689 30.0671283,0.615912689 L0.0676496077,0.615912689 L2.27731785,8.538983 C4.8234316,18.8394146 15.1312989,21.5909903 25.9783605,23.2624808 C32.8718202,24.3278908 38.8558487,25.6691922 54.3058961,28.0436186 C69.6575074,30.3960323 126.481536,45.6184824 126.481536,45.6184824 C119.886323,44.8421712 79.1485027,43.1427981 66.9189292,43.5492976 C46.8247586,44.2228833 35.8939529,50.6490964 29.3031472,57.2323329 C22.7138107,63.8141018 26.1987397,73.1195637 26.1987397,73.1195637 L56.6301615,162.925122 L86.8015359,162.922187 C88.4161804,158.077947 112.171583,86.7321586 115.29656,80.8650656 C118.528787,74.7969242 119.905422,67.5107519 135.594948,65.6455505 C154.484379,63.3958623 192.792152,72.1231264 192.792152,72.1231264 C192.792152,72.1231264 219.051062,76.9101343 228.049877,76.9101343 C235.24746,76.9101343 237.153005,76.1866533 237.153005,76.1866533 C237.153005,76.1866533 216.096512,74.5136953 196.813337,64.5273102" id="Fill-22" fill="#231916" mask="url(#mask-4)"></path>
                    </g>
                    <g id="Group-27" transform="translate(474.549763, 0.000000)">
                        <mask id="mask-6" fill="white">
                            <use xlink:href="#path-5"></use>
                        </mask>
                        <g id="Clip-26"></g>
                        <path d="M36.4930237,28.6852126 L90.9927867,28.6852126 L90.9927867,0.61620619 L2.54581991,0.61620619 L2.54581991,8.68749471 C2.54581991,8.68749471 1.46008531,29.4732639 11.5108436,39.5139468 C11.5108436,39.5139468 26.9814597,54.3753902 52.54691,64.2898675 C72.689564,72.1028748 86.6748246,75.0261488 112.563498,75.7716423 C112.563498,75.7716423 99.1600379,79.1160908 85.1468626,79.9672448 C72.5147299,80.7362185 59.4668152,78.8783546 55.1326919,78.4865303 C46.1118389,77.6749989 17.245109,72.867446 10.1768152,72.867446 C0.431649289,72.867446 1.16477725,87.2314045 1.16477725,87.2314045 L2.53994313,162.922481 L90.9927867,162.922481 L90.9927867,130.637327 L32.7186635,130.637327 L32.7186635,94.350281 C32.7186635,92.2356034 32.0663412,89.4869628 38.7012227,90.1223933 C46.2279052,90.8444068 62.8900379,90.5699829 81.9689953,89.9081373 C100.28691,89.2741743 133.088142,79.5211227 144.265773,62.612507 C144.265773,62.612507 137.309137,69.7666037 105.06473,69.7666037 C79.8518863,69.7666037 45.757763,55.0078857 38.9833081,48.241211 C33.8455355,43.1108065 32.4453934,36.6068154 32.4453934,32.3715902 C32.4453934,32.3715902 31.9385213,28.6852126 36.4930237,28.6852126" id="Fill-25" fill="#231916" mask="url(#mask-6)"></path>
                    </g>
                    <path d="M49.4589573,198.692377 C48.1763507,197.238077 46.613128,196.448559 44.6899526,196.448559 C41.5561611,196.448559 39.1363981,199.226549 39.1363981,202.278964 C39.1363981,205.692385 41.5223697,208.18568 44.9015166,208.18568 C46.7541706,208.18568 48.2483412,207.331591 49.4589573,205.975614 L49.4589573,210.068491 C47.9985782,210.84627 46.5411374,211.170589 44.8677251,211.170589 C39.9532701,211.170589 35.9335545,207.402031 35.9335545,202.424247 C35.9335545,197.26596 39.9194787,193.463649 45.0454976,193.463649 C46.5411374,193.463649 48.1763507,193.815851 49.4589573,194.56428 L49.4589573,198.692377 Z" id="Fill-28" fill="#231916"></path>
                    <path d="M58.4377915,196.666043 L58.5435735,196.666043 C59.3281232,194.708389 60.9692133,193.463943 63.1010142,193.463943 C64.0280758,193.463943 64.9521991,193.786794 65.738218,194.281344 L64.2749005,197.197281 C63.7048531,196.696861 63.0657536,196.522228 62.320872,196.522228 C58.865327,196.522228 58.4377915,199.719925 58.4377915,202.424541 L58.4377915,210.600022 L55.2349479,210.600022 L55.2349479,193.958493 L58.4377915,193.958493 L58.4377915,196.666043 Z" id="Fill-30" fill="#231916"></path>
                    <path d="M80.2920569,200.394979 C79.9012512,197.907554 78.2660379,196.231661 75.7008246,196.231661 C73.2105403,196.231661 71.3593555,198.014682 70.9656114,200.394979 L80.2920569,200.394979 Z M70.7922464,202.814898 C70.8260379,205.658926 72.7477441,208.326854 75.8110142,208.326854 C78.2660379,208.326854 79.5839052,207.083875 80.7945213,205.088066 L83.4978389,206.618676 C81.9302085,209.494989 79.0123886,211.170882 75.7757536,211.170882 C70.6849953,211.170882 67.5894028,207.331884 67.5894028,202.424541 C67.5894028,197.305876 70.3294502,193.463943 75.7008246,193.463943 C81.0075545,193.463943 83.4978389,197.371914 83.4978389,202.317413 L83.4978389,202.814898 L70.7922464,202.814898 Z" id="Fill-32" fill="#231916"></path>
                    <path d="M101.70145,202.279551 C101.70145,199.048101 99.7444834,196.306798 96.2918768,196.306798 C92.9832512,196.306798 91.023346,199.190449 91.023346,202.279551 C91.023346,205.409743 92.9083223,208.327147 96.2918768,208.327147 C99.7812133,208.327147 101.70145,205.550624 101.70145,202.279551 Z M104.727991,210.600316 L101.523678,210.600316 L101.523678,208.002828 L101.453156,208.002828 C100.172019,209.890042 98.1797915,211.171176 95.7938199,211.171176 C90.706,211.171176 87.8219716,206.938886 87.8219716,202.176826 C87.8219716,197.626086 90.8485118,193.464236 95.6865687,193.464236 C98.1415924,193.464236 100.136758,194.743903 101.453156,196.732375 L101.523678,196.732375 L101.523678,193.958786 L104.727991,193.958786 L104.727991,210.600316 Z" id="Fill-34" fill="#231916"></path>
                    <polygon id="Fill-36" fill="#231916" points="115.043351 210.600169 111.839038 210.600169 111.839038 196.946484 110.096573 196.946484 110.096573 193.95864 111.839038 193.95864 111.839038 187.599932 115.043351 187.599932 115.043351 193.95864 118.175673 193.95864 118.175673 196.946484 115.043351 196.946484"></polygon>
                    <path d="M124.115332,202.316679 C124.115332,205.443936 126.645284,208.107462 129.811398,208.107462 C132.978981,208.107462 135.504526,205.443936 135.504526,202.316679 C135.504526,199.151266 132.978981,196.522961 129.811398,196.522961 C126.645284,196.522961 124.115332,199.151266 124.115332,202.316679 M138.710308,202.316679 C138.710308,207.33115 134.793436,211.170149 129.811398,211.170149 C124.826422,211.170149 120.912488,207.33115 120.912488,202.316679 C120.912488,197.305143 124.826422,193.464677 129.811398,193.464677 C134.793436,193.464677 138.710308,197.305143 138.710308,202.316679" id="Fill-38" fill="#231916"></path>
                    <path d="M146.398602,196.666043 L146.504384,196.666043 C147.288934,194.708389 148.925616,193.463943 151.060355,193.463943 C151.987417,193.463943 152.91154,193.786794 153.697559,194.281344 L152.235711,197.197281 C151.665664,196.696861 151.025095,196.522228 150.277275,196.522228 C146.826137,196.522228 146.398602,199.719925 146.398602,202.424541 L146.398602,210.600022 L143.194289,210.600022 L143.194289,193.958493 L146.398602,193.958493 L146.398602,196.666043 Z" id="Fill-40" fill="#231916"></path>
                    <path d="M178.801242,202.279551 C178.801242,199.048101 176.847213,196.306798 173.393137,196.306798 C170.083043,196.306798 168.124607,199.190449 168.124607,202.279551 C168.124607,205.409743 170.013991,208.327147 173.393137,208.327147 C176.881005,208.327147 178.801242,205.550624 178.801242,202.279551 Z M181.83072,210.600316 L178.626408,210.600316 L178.626408,208.002828 L178.557355,208.002828 C177.276218,209.890042 175.281052,211.171176 172.895081,211.171176 C167.80873,211.171176 164.926171,206.938886 164.926171,202.176826 C164.926171,197.626086 167.946834,193.464236 172.790768,193.464236 C175.244322,193.464236 177.239488,194.743903 178.557355,196.732375 L178.626408,196.732375 L178.626408,193.958786 L181.83072,193.958786 L181.83072,210.600316 Z" id="Fill-42" fill="#231916"></path>
                    <path d="M200.470389,202.279551 C200.470389,199.048101 198.511953,196.306798 195.059346,196.306798 C191.749251,196.306798 189.789346,199.190449 189.789346,202.279551 C189.789346,205.409743 191.67873,208.327147 195.059346,208.327147 C198.547213,208.327147 200.470389,205.550624 200.470389,202.279551 Z M203.49546,210.277464 C203.49546,216.005144 201.855839,220.125904 195.37963,220.125904 C190.756076,220.125904 187.406313,217.283343 187.335791,212.591723 L190.538635,212.591723 C190.538635,215.579567 192.604322,217.283343 195.523611,217.283343 C199.471336,217.283343 200.291147,214.58313 200.291147,211.171176 L200.291147,208.002828 L200.219156,208.002828 C198.940957,209.890042 196.912,211.171176 194.562758,211.171176 C189.436739,211.171176 186.59091,206.938886 186.59091,202.176826 C186.59091,197.626086 189.613043,193.464236 194.421716,193.464236 C196.912,193.464236 198.901289,194.743903 200.219156,196.808685 L200.291147,196.808685 L200.291147,193.958786 L203.49546,193.958786 L203.49546,210.277464 Z" id="Fill-44" fill="#231916"></path>
                    <path d="M220.433654,200.394979 C220.042848,197.907554 218.407635,196.231661 215.84536,196.231661 C213.352137,196.231661 211.503891,198.014682 211.110147,200.394979 L220.433654,200.394979 Z M210.932374,202.814898 C210.970573,205.658926 212.889341,208.326854 215.951142,208.326854 C218.407635,208.326854 219.724033,207.083875 220.934649,205.088066 L223.640905,206.618676 C222.073275,209.494989 219.153986,211.170882 215.917351,211.170882 C210.826592,211.170882 207.731,207.331884 207.731,202.424541 C207.731,197.305876 210.468109,193.463943 215.84536,193.463943 C221.147682,193.463943 223.640905,197.371914 223.640905,202.317413 L223.640905,202.814898 L210.932374,202.814898 Z" id="Fill-46" fill="#231916"></path>
                    <path d="M231.313479,196.201724 L231.389877,196.201724 C232.384521,194.421638 234.376749,193.464823 236.402768,193.464823 C241.10272,193.464823 242.311867,196.631704 242.311867,200.676153 L242.311867,210.600903 L239.110493,210.600903 L239.110493,201.07238 C239.110493,198.229819 238.718218,196.305917 235.444853,196.305917 C231.313479,196.305917 231.313479,199.935062 231.313479,202.958126 L231.313479,210.600903 L228.109166,210.600903 L228.109166,193.959373 L231.313479,193.959373 L231.313479,196.201724 Z" id="Fill-48" fill="#231916"></path>
                    <path d="M260.337118,198.692377 C259.051573,197.238077 257.488351,196.448559 255.557829,196.448559 C252.41963,196.448559 250.001336,199.226549 250.001336,202.278964 C250.001336,205.692385 252.385839,208.18568 255.772332,208.18568 C257.624986,208.18568 259.122095,207.331591 260.337118,205.975614 L260.337118,210.068491 C258.870863,210.84627 257.413422,211.170589 255.735602,211.170589 C250.818209,211.170589 246.798493,207.402031 246.798493,202.424247 C246.798493,197.26596 250.784417,193.463649 255.914844,193.463649 C257.413422,193.463649 259.051573,193.815851 260.337118,194.56428 L260.337118,198.692377 Z" id="Fill-50" fill="#231916"></path>
                    <polygon id="Fill-52" fill="#231916" points="263.987185 193.958786 267.732161 193.958786 273.356237 204.524837 278.589507 193.958786 282.183156 193.958786 268.693014 220.125904 265.059697 220.125904 271.609365 207.753352"></polygon>
                    <path d="M309.589654,202.279551 C309.589654,199.048101 307.629749,196.306798 304.177142,196.306798 C300.868517,196.306798 298.908611,199.190449 298.908611,202.279551 C298.908611,205.409743 300.796526,208.327147 304.177142,208.327147 C307.667948,208.327147 309.589654,205.550624 309.589654,202.279551 Z M295.890886,179.741578 L299.087853,179.741578 L299.087853,196.732375 L299.158374,196.732375 C300.476242,194.743903 302.469938,193.464236 304.96463,193.464236 C309.767427,193.464236 312.789559,197.626086 312.789559,202.176826 C312.789559,206.938886 309.945199,211.171176 304.820649,211.171176 C302.469938,211.171176 300.443919,209.890042 299.158374,208.002828 L299.087853,208.002828 L299.087853,210.600316 L295.890886,210.600316 L295.890886,179.741578 Z" id="Fill-54" fill="#231916"></path>
                    <polygon id="Fill-56" fill="#231916" points="315.738967 193.958786 319.475128 193.958786 325.099204 204.524837 330.335412 193.958786 333.924654 193.958786 320.440389 220.125904 316.80854 220.125904 323.356739 207.753352"></polygon>
                    <polygon id="Fill-58" fill="#231916" points="542.742417 190.622556 538.602227 190.622556 532.321422 206.11943 530.017725 200.334517 534.082986 190.622556 529.939858 190.622556 528.028436 195.349396 526.149336 190.622556 522.00327 190.622556 525.984787 200.387347 523.670806 206.11943 517.492844 190.622556 513.349716 190.622556 523.59 215.696381 527.968199 205.228653 532.237678 215.696381"></polygon>
                    <polygon id="Fill-60" fill="#231916" points="501.787156 194.416061 501.787156 215.696381 498.006919 215.696381 498.006919 194.416061 490.685924 194.416061 490.685924 190.629893 509.081706 190.629893 509.081706 194.416061"></polygon>
                    <polygon id="Fill-62" fill="#231916" points="550.797128 200.326152 561.623621 200.326152 561.623621 190.630334 565.403858 190.630334 565.403858 215.696821 561.623621 215.696821 561.623621 204.102048 550.797128 204.102048 550.797128 215.696821 547.012483 215.696821 547.012483 190.630334 550.797128 190.630334"></polygon>
                    <mask id="mask-8" fill="white">
                        <use xlink:href="#path-7"></use>
                    </mask>
                    <g id="Clip-65"></g>
                    <polygon id="Fill-64" fill="#231916" mask="url(#mask-8)" points="476.763839 217.298164 478.880948 217.298164 478.880948 189.022239 476.763839 189.022239"></polygon>
                </g>
            </g>
        </g>
    </g>
</svg>