<?xml version="1.0" encoding="UTF-8"?>
<svg width="77px" height="66px" viewBox="0 0 77 66" version="1.1" xmlns="http://www.w3.org/2000/svg" xmlns:xlink="http://www.w3.org/1999/xlink">
    <!-- Generator: Sketch 51.3 (57544) - http://www.bohemiancoding.com/sketch -->
    <title>Group 17</title>
    <desc>Created with Sketch.</desc>
    <defs></defs>
    <g id="Page-1" stroke="none" stroke-width="1" fill="none" fill-rule="evenodd">
        <g id="pc" transform="translate(-77.000000, -4259.000000)" fill-rule="nonzero">
            <g id="Group-17" transform="translate(77.000000, 4259.000000)">
                <path d="M58,21.2842712 L55,24.2842712 L55,4 C55,3.44771525 54.5522847,3 54,3 L4,3 C3.44771525,3 3,3.44771525 3,4 L3,55.0320352 L0,52.0320352 L0,4 C-2.705415e-16,1.790861 1.790861,4.05812251e-16 4,0 L54,0 C56.209139,-4.05812251e-16 58,1.790861 58,4 L58,21.2842712 Z M58,45.3259018 L58,62 C58,64.209139 56.209139,66 54,66 L13.9679648,66 L10.9679648,63 L54,63 C54.5522847,63 55,62.5522847 55,62 L55,48.3259018 L58,45.3259018 Z" id="Combined-Shape" fill="#555555"></path>
                <rect id="Rectangle-11" fill="#1B62AA" x="15" y="14" width="28" height="3"></rect>
                <rect id="Rectangle-11" fill="#555555" x="15" y="22" width="28" height="3"></rect>
                <rect id="Rectangle-11" fill="#1B62AA" x="15" y="30" width="28" height="3"></rect>
                <rect id="Rectangle-11" fill="#555555" x="15" y="38" width="17" height="3"></rect>
                <g id="Group-5" transform="translate(55.615829, 36.097117) rotate(44.000000) translate(-55.615829, -36.097117) translate(50.615829, 11.597117)">
                    <g id="Group-16">
                        <polygon id="Triangle" fill="#555555" transform="translate(5.000000, 45.000000) scale(1, -1) translate(-5.000000, -45.000000) " points="5 41 10 49 0 49"></polygon>
                        <rect id="Rectangle-12" fill="#1B62AA" x="0" y="9" width="10" height="30"></rect>
                        <rect id="Rectangle-12" fill="#555555" x="0" y="0" width="10" height="7"></rect>
                    </g>
                </g>
                <path d="M12.8260646,65.7302846 L12.5563492,65.6608646 L12.5563492,64.5 L13.1776695,64.5 L13.6170094,64.9393398 L12.8260646,65.7302846 Z M12.5,63.8223305 L12.5,55 C12.5,53.6192881 11.3807119,52.5 10,52.5 L2,52.5 C1.82981845,52.5 1.66260779,52.516834 1.5,52.5497137 L1.5,52.8223305 L12.5,63.8223305 Z M1.28190145,52.6042319 C1.24351353,52.6157075 1.20544057,52.6281079 1.16770595,52.641422 L1.06066017,52.3829906 L1.28190145,52.6042319 Z" id="Combined-Shape" stroke="#555555" stroke-width="3" fill="#FFFFFF"></path>
            </g>
        </g>
    </g>
</svg>